<svg xmlns="http://www.w3.org/2000/svg" version="1.0" viewBox="0 0 1344.000000 768.000000" preserveAspectRatio="xMidYMid meet">
<style>
  #character_body {
    animation: sad-sigh 3s ease-in-out infinite;
    transform-box: fill-box;
    transform-origin: center;
  }

  @keyframes sad-sigh {
    0%, 100% { 
      transform: translateY(0) scale(1, 1); 
    }
    50% { 
      /* 약간 아래로 처지면서(translateY), 위아래로 눌림(scale) -> 한숨 쉬는 느낌 */
      transform: translateY(20px) scale(1.02, 0.95); 
    }
  }
</style>

<g transform="translate(0.000000,768.000000) scale(0.100000,-0.100000)" fill="#000000" stroke="none" fill-rule="evenodd" id="element-0">
<g id="character_body">
<path d="M5815 6924 c-16 -2 -70 -9 -120 -16 -49 -6 -189 -12 -310 -13 -214 -1 -223 -2 -330 -33 -201 -57 -382 -143 -641 -304 -65 -40 -140 -93 -168 -118 -43 -39 -151 -119 -193 -144 -7 -4 6 20 29 53 47 68 46 89 -1 39 -122 -128 -501 -691 -501 -744 0 -15 3 -14 26 7 l26 24 -26 -52 c-83 -167 -198 -448 -237 -581 -104 -360 -125 -471 -144 -747 -3 -44 -15 -141 -25 -215 -29 -205 -44 -428 -32 -470 l10 -35 1 35 c2 54 51 473 56 479 3 2 3 -126 1 -285 -4 -287 4 -510 24 -654 33 -252 44 -317 66 -425 31 -152 77 -315 120 -424 43 -112 156 -339 161 -325 2 6 -12 52 -32 103 -34 87 -66 247 -64 316 l1 30 10 -35 c102 -348 239 -651 325 -717 20 -15 37 -40 43 -62 5 -20 16 -45 24 -56 15 -19 15 -19 16 10 0 17 4 25 8 19 9 -13 54 -44 64 -44 17 0 6 18 -42 70 -42 45 -52 64 -66 124 -9 39 -19 109 -24 156 -4 47 -13 108 -19 135 -10 49 -31 252 -31 309 0 48 10 24 24 -60 30 -166 76 -304 102 -304 17 0 17 4 4 28 -13 25 -58 260 -75 397 -19 154 -19 359 0 494 9 58 18 112 20 118 3 10 103 -45 223 -123 2 -1 -2 -38 -9 -81 -29 -190 33 -616 146 -998 12 -44 35 -123 50 -175 32 -111 85 -220 148 -306 24 -33 50 -70 56 -82 13 -24 91 -84 158 -123 37 -21 44 -22 67 -10 23 13 35 12 99 -4 82 -20 132 -16 169 15 21 18 22 19 3 20 -16 0 -11 9 26 48 59 61 103 131 161 256 33 73 43 104 36 114 -8 8 -7 30 1 69 6 31 11 71 11 90 0 22 5 33 15 33 8 0 90 -31 183 -70 172 -71 284 -106 302 -95 6 3 10 13 10 22 0 11 6 14 23 10 12 -3 59 -12 105 -19 50 -7 82 -17 82 -24 0 -30 106 -348 141 -424 43 -92 100 -160 127 -153 11 2 23 -7 34 -25 10 -17 55 -70 100 -119 46 -49 108 -120 138 -156 54 -65 94 -96 106 -84 4 4 -1 18 -10 31 l-16 25 69 -29 c112 -48 167 -59 267 -53 74 5 100 11 154 38 116 58 163 103 199 189 17 41 31 81 31 88 0 8 14 36 30 62 51 79 63 147 64 357 l1 186 70 18 c39 9 144 44 235 76 90 32 166 57 167 55 2 -2 -28 -22 -66 -45 -39 -23 -73 -45 -76 -50 -25 -41 107 16 275 119 47 29 144 88 216 131 72 43 169 103 215 134 96 64 97 64 80 -45 -6 -39 -8 -82 -5 -97 5 -18 4 -24 -5 -19 -34 22 9 -155 65 -266 14 -28 48 -117 76 -197 55 -164 92 -235 144 -280 62 -55 72 -37 20 36 -36 51 -80 133 -74 138 2 2 24 -21 48 -52 25 -30 55 -68 68 -84 13 -15 25 -36 26 -46 2 -21 139 -93 235 -123 92 -29 187 -26 174 5 -5 15 8 20 88 30 141 18 257 190 279 413 14 141 13 192 -4 192 -15 0 -35 -86 -37 -154 -1 -23 -5 -52 -10 -66 -10 -31 -2 134 16 325 27 271 104 544 202 713 37 64 38 45 1 -37 -23 -54 -28 -75 -20 -83 7 -7 13 -10 16 -7 2 2 36 68 75 147 81 159 129 302 162 472 12 63 29 156 39 205 l18 90 1 -108 c1 -115 -15 -216 -53 -330 -12 -37 -19 -67 -15 -67 13 0 60 86 76 138 39 127 44 197 38 492 -6 288 -22 432 -48 454 -8 6 -35 72 -61 146 -78 218 -189 448 -269 555 -20 27 -33 12 -18 -21 6 -14 8 -24 4 -22 -19 8 -216 219 -210 224 6 7 -89 69 -268 177 -166 100 -235 127 -235 93 0 -7 14 -19 30 -26 17 -7 29 -14 27 -16 -2 -2 -33 9 -68 25 -142 64 -443 134 -559 130 -41 -2 -104 -2 -140 -1 l-65 2 -28 90 c-15 49 -27 98 -27 109 0 11 -4 30 -10 43 -5 13 -35 88 -66 168 -56 145 -125 293 -178 383 -15 26 -26 47 -23 47 13 0 123 -173 177 -280 13 -25 38 -88 56 -140 24 -68 33 -86 34 -64 1 95 -50 233 -150 404 -51 87 -407 518 -529 641 -89 89 -183 159 -213 159 -29 0 -21 -13 30 -47 26 -18 79 -65 117 -104 73 -75 59 -70 -55 17 -174 134 -621 374 -808 435 -79 25 -120 32 -218 36 -122 6 -234 -2 -234 -16 0 -5 57 -11 128 -14 157 -6 258 -27 386 -78 91 -37 195 -88 153 -75 -45 14 -176 44 -213 50 -22 3 -61 15 -86 26 -92 40 -262 68 -556 92 -119 9 -157 15 -138 21 14 5 26 13 26 18 0 5 -1 8 -2 8 -2 -1 -16 -4 -33 -5z m-430 -65 c-16 -4 -135 -31 -263 -59 -128 -28 -239 -53 -247 -57 -8 -3 -15 -3 -15 0 0 7 156 63 230 82 82 21 224 43 280 43 42 0 43 -1 15 -9z m-1264 -626 c-37 -51 -80 -97 -85 -92 -6 5 91 119 100 119 3 0 -4 -12 -15 -27z m-180 -149 c-27 -41 -59 -83 -71 -91 -22 -15 -22 -15 -9 8 23 44 114 159 126 159 1 0 -20 -34 -46 -76z m1043 -636 c-7 -77 8 -250 31 -358 7 -36 12 -66 10 -68 -1 -2 -43 10 -91 27 -49 16 -115 33 -146 36 l-57 6 25 57 c43 97 134 254 183 314 25 32 47 58 48 58 2 0 0 -33 -3 -72z m941 -28 c20 -102 59 -205 125 -335 28 -53 50 -100 50 -104 0 -5 -20 -14 -44 -20 -72 -18 -136 -49 -136 -66 0 -24 27 -29 73 -12 42 15 149 40 151 35 36 -66 91 -134 121 -150 19 -10 19 -10 4 8 -18 21 -42 64 -36 64 3 0 24 -25 47 -57 71 -94 180 -202 242 -240 32 -20 58 -37 58 -38 0 -1 -28 4 -62 12 -46 11 -100 14 -198 10 -144 -4 -212 -22 -313 -82 -56 -32 -63 -32 -76 6 -13 39 -15 71 -2 51 6 -11 19 -7 56 17 59 37 117 56 214 71 77 11 106 24 94 43 -9 15 -149 1 -218 -23 -33 -11 -82 -34 -109 -51 -27 -16 -50 -28 -51 -27 -2 2 -10 39 -19 83 -27 143 -38 420 -24 650 7 106 26 251 33 243 1 -2 10 -41 20 -88z m804 -485 c-3 -2 -27 2 -54 9 l-50 12 -11 65 c-6 35 -14 96 -18 134 l-6 70 72 -143 c39 -78 69 -144 67 -147z m-2379 190 c0 -64 0 -64 -32 -73 -18 -6 -42 -13 -52 -18 -16 -6 -13 5 19 62 38 69 54 94 61 94 2 0 4 -29 4 -65z m543 -129 c141 -36 148 -41 176 -128 70 -220 248 -498 309 -486 10 2 26 -10 40 -29 27 -40 46 -44 32 -8 -6 16 -6 25 0 25 6 0 2 17 -8 38 -25 48 -30 70 -47 204 -15 110 -21 317 -9 305 3 -3 21 -46 39 -96 45 -126 87 -193 180 -286 59 -60 100 -91 154 -118 40 -20 83 -37 94 -37 15 0 18 -5 14 -21 -7 -26 14 -34 45 -18 21 10 20 9 -6 -19 -50 -54 -21 -54 83 -2 87 44 131 60 131 45 0 -2 -5 -27 -11 -55 -8 -39 -8 -68 1 -117 16 -85 58 -145 133 -191 48 -29 69 -36 130 -40 61 -4 81 -1 118 17 112 53 167 99 200 169 18 37 21 56 17 128 -2 46 -1 84 3 84 4 0 56 -22 115 -48 60 -27 141 -56 179 -65 62 -15 75 -15 110 -3 22 8 41 13 42 12 1 -1 5 -44 8 -96 6 -83 -15 -394 -31 -465 -2 -11 -17 -139 -34 -285 -16 -146 -31 -272 -35 -280 -11 -29 -298 -201 -397 -238 -63 -23 -74 -22 -30 3 15 9 18 14 8 10 -297 -92 -512 -151 -596 -164 -36 -6 -243 -11 -460 -13 -370 -3 -404 -1 -535 20 -130 21 -332 74 -414 108 -20 8 -81 28 -136 44 -326 93 -506 163 -627 244 -109 72 -217 184 -335 346 -12 17 -27 61 -33 98 -20 108 9 247 83 402 33 71 145 186 254 262 32 22 70 51 84 65 l26 24 6 -21 c3 -13 10 -19 17 -15 6 4 9 13 6 20 -3 8 -1 28 4 47 4 18 11 54 15 81 3 26 10 47 16 47 5 0 9 -7 9 -15 0 -8 6 -15 14 -15 8 0 16 -5 18 -11 3 -8 36 -1 98 19 78 25 239 62 270 62 4 0 -2 -19 -14 -42 -16 -33 -21 -62 -21 -118 0 -86 23 -142 89 -217 57 -65 106 -87 196 -87 171 -2 280 111 280 290 l0 45 46 -36 c49 -37 81 -46 70 -20 -3 8 -9 22 -13 32 -5 13 -2 15 15 11 29 -8 29 16 0 43 -126 114 -293 191 -461 214 -38 5 -47 10 -43 22 3 8 6 22 7 31 0 12 3 10 9 -5 15 -36 27 -27 35 24 6 44 53 209 74 266 9 24 16 27 54 27 25 0 87 -11 140 -24z m-532 -97 c23 -135 37 -184 62 -215 10 -14 17 -27 15 -29 -2 -2 -29 -7 -59 -11 -47 -5 -64 -2 -111 20 -30 14 -58 26 -62 26 -12 0 16 -44 37 -59 19 -14 18 -15 -24 -27 -42 -13 -95 -6 -122 17 -11 9 53 199 101 303 l38 81 54 -1 54 -2 17 -103z m4001 21 l30 0 -23 -19 c-31 -25 -19 -36 22 -22 76 26 214 5 389 -59 45 -17 101 -30 126 -30 85 0 272 -86 516 -237 120 -74 154 -106 235 -219 50 -70 73 -94 89 -94 18 0 36 -26 102 -152 43 -84 91 -187 105 -228 14 -41 39 -109 55 -150 30 -74 62 -215 62 -272 0 -16 -6 -35 -13 -42 -8 -8 -14 -45 -15 -97 -3 -101 -33 -311 -69 -469 -27 -121 -70 -215 -143 -315 -35 -48 -87 -141 -182 -325 -24 -47 -59 -112 -78 -144 -31 -55 -32 -59 -12 -54 21 6 21 5 7 -28 -8 -19 -22 -51 -31 -71 -24 -55 -29 -185 -10 -256 12 -45 14 -90 9 -214 l-6 -156 -43 -52 c-46 -57 -131 -139 -173 -168 -30 -21 -94 -18 -241 10 -130 24 -196 80 -264 222 -18 38 -39 96 -46 129 -9 44 -16 59 -26 55 -8 -3 -14 -15 -14 -26 0 -69 -54 94 -64 193 -4 36 -12 98 -17 138 -11 74 -3 179 23 317 10 51 19 68 68 120 59 64 162 197 198 256 25 42 29 89 8 89 -15 0 -20 -6 -120 -145 -31 -44 -82 -107 -113 -140 -31 -33 -52 -53 -46 -45 6 8 50 67 97 130 60 80 86 123 86 142 0 50 -26 32 -100 -72 -90 -126 -173 -221 -266 -306 -140 -126 -172 -149 -204 -146 -32 4 -70 -14 -202 -95 -51 -31 -177 -97 -279 -148 -156 -77 -197 -93 -250 -99 -35 -3 -89 -9 -121 -12 l-56 -6 -7 66 c-4 36 -11 66 -16 66 -20 0 -28 -55 -34 -241 -3 -107 -10 -219 -15 -249 -16 -96 -75 -295 -87 -295 -7 0 -36 -39 -65 -87 -84 -138 -116 -178 -153 -194 -40 -17 -193 -19 -215 -3 -11 8 -6 9 20 5 19 -3 41 -2 49 3 19 12 -30 37 -111 56 -209 48 -274 92 -389 260 -113 164 -289 520 -289 582 0 2 11 3 24 3 14 0 37 5 53 11 27 10 27 11 9 25 -11 8 -36 14 -57 14 -39 0 -49 14 -49 73 0 17 -5 27 -15 27 -8 0 -15 -6 -15 -12 0 -7 -5 -20 -10 -28 -9 -13 -13 -11 -30 10 -17 22 -20 23 -20 6 0 -17 -5 -18 -52 -12 -167 22 -403 87 -585 162 -104 42 -327 180 -405 250 -33 30 -66 54 -73 54 -22 0 -25 -13 -9 -37 15 -24 15 -24 -8 -21 -43 6 -24 -22 52 -73 41 -28 65 -49 53 -46 -30 7 -29 -4 5 -35 34 -32 176 -125 204 -134 19 -6 20 -11 14 -78 -9 -93 -43 -263 -66 -332 -14 -40 -33 -68 -67 -99 -54 -50 -135 -95 -171 -95 -35 0 -121 46 -167 89 -22 21 -59 52 -82 69 -54 42 -106 131 -87 150 15 15 -3 71 -74 222 -21 47 -65 150 -97 230 -64 161 -62 145 -91 550 -9 124 -18 248 -21 277 l-5 52 51 -14 c64 -17 67 -1 5 26 -25 12 -43 23 -41 26 3 2 14 0 25 -6 18 -10 149 -48 452 -131 119 -33 176 -42 400 -65 62 -6 124 -15 195 -26 33 -5 150 -12 260 -15 184 -6 211 -4 345 19 80 14 172 28 205 32 33 4 100 15 150 26 49 10 105 19 125 18 34 0 33 -1 -18 -17 -104 -33 -44 -55 73 -27 126 30 451 172 576 250 l39 25 0 -22 c0 -13 -10 -66 -21 -118 -11 -52 -22 -114 -24 -137 -9 -107 -61 -313 -136 -533 -73 -214 -112 -353 -97 -348 13 5 79 172 154 388 29 85 53 152 53 149 1 -7 -37 -177 -68 -309 -22 -93 -120 -381 -148 -432 -9 -18 -16 -36 -15 -41 1 -4 -14 -39 -33 -77 -19 -38 -35 -74 -35 -80 0 -19 30 -10 46 15 9 13 24 27 33 30 28 8 120 104 179 185 30 41 59 80 65 85 14 14 -48 -96 -95 -169 -43 -67 -52 -101 -18 -71 88 79 359 522 446 727 15 37 30 66 31 64 2 -2 -4 -36 -12 -76 -8 -40 -13 -75 -10 -78 5 -6 3 -11 59 153 24 72 63 178 85 237 41 107 105 347 117 440 6 46 11 54 52 82 147 101 442 377 442 413 0 10 27 51 59 92 33 41 79 109 102 150 23 42 51 83 62 92 34 28 47 121 58 409 10 284 7 347 -18 365 -11 8 -16 35 -18 96 -1 46 -12 121 -24 166 -26 99 -27 117 -5 109 9 -3 29 -6 46 -6z m-1664 -46 c59 -13 89 -39 157 -137 41 -60 116 -147 181 -212 l112 -110 7 -69 8 -68 -34 7 c-111 22 -146 40 -103 49 36 8 79 40 71 53 -4 6 -33 5 -82 -4 -74 -14 -75 -14 -117 11 l-43 25 33 12 c18 6 37 20 43 32 10 18 9 19 -12 13 -13 -5 -50 -10 -81 -13 l-56 -5 -28 53 c-39 79 -72 171 -94 266 -24 103 -25 117 -4 109 9 -3 28 -9 42 -12z m-3383 -278 c-33 -163 -53 -238 -54 -209 -2 34 78 397 86 390 2 -3 -12 -84 -32 -181z m1194 65 c-15 -5 -18 1 -24 40 l-6 34 20 -35 c10 -19 15 -37 10 -39z m4800 45 c34 -14 91 -48 127 -77 67 -55 83 -74 37 -43 -16 10 -75 46 -132 81 -57 35 -102 63 -99 63 2 0 32 -11 67 -24z m-2298 -63 c13 -16 12 -17 -3 -4 -10 7 -18 15 -18 17 0 8 8 3 21 -13z m-2971 -72 c0 -6 -4 -13 -10 -16 -5 -3 -10 1 -10 9 0 9 5 16 10 16 6 0 10 -4 10 -9z m57 -17 c-3 -3 -12 -4 -19 -1 -8 3 -5 6 6 6 11 1 17 -2 13 -5z m447 -56 c-56 -61 -68 -124 -38 -211 20 -58 69 -103 123 -112 68 -11 69 6 3 36 -76 34 -102 71 -102 147 0 68 19 103 75 142 44 30 48 31 96 21 106 -23 139 -60 139 -156 0 -59 -9 -85 -43 -122 -24 -27 -19 -36 16 -28 51 13 85 145 57 219 -7 20 -6 26 3 26 27 0 37 -25 37 -90 0 -61 -4 -72 -42 -133 -54 -84 -98 -109 -193 -109 -36 0 -75 7 -92 15 -54 29 -102 94 -117 162 -4 17 -9 38 -12 47 -4 13 -1 16 9 12 17 -6 19 26 2 38 -6 5 -4 19 7 38 10 17 13 28 8 25 -17 -11 -11 11 11 39 14 18 30 26 52 26 l31 0 -30 -32z m3774 -68 c0 -16 -3 -11 -9 15 -4 22 -8 51 -7 65 0 16 3 11 9 -15 4 -22 8 -51 7 -65z m-2081 -60 c-46 -54 -59 -141 -32 -207 19 -44 13 -54 -11 -18 -21 33 -33 165 -14 165 7 0 10 8 7 20 -3 13 0 20 9 20 12 0 16 9 13 38 0 7 43 21 50 16 2 -2 -8 -17 -22 -34z m252 10 c48 -35 76 -77 86 -127 7 -40 -16 -85 -72 -133 -28 -25 -33 -34 -22 -41 22 -14 27 -12 74 32 66 61 76 119 41 224 -4 11 2 4 13 -15 18 -31 20 -32 21 -12 0 29 -18 64 -30 57 -9 -6 -25 13 -17 21 2 2 17 0 32 -6 18 -7 25 -15 21 -25 -3 -8 -2 -15 3 -15 5 0 11 -18 15 -41 13 -84 -54 -228 -125 -264 -42 -22 -173 -19 -225 4 -58 26 -64 41 -13 30 46 -11 64 -3 34 13 -61 35 -102 114 -90 176 23 130 155 193 254 122z m1358 -26 c-3 -3 -12 -4 -19 -1 -8 3 -5 6 6 6 11 1 17 -2 13 -5z m23 -69 c23 -12 33 -29 50 -83 12 -37 24 -102 27 -145 5 -62 9 -77 20 -72 21 7 9 -41 -37 -147 -44 -103 -111 -212 -174 -286 -54 -63 -53 -70 -31 132 8 77 20 247 27 378 l12 238 38 0 c22 0 52 -7 68 -15z m1978 -48 c25 -51 52 -120 48 -124 -4 -4 -86 141 -86 151 0 13 28 -7 38 -27z m-2751 -1294 c-3 -10 -5 -2 -5 17 0 19 2 27 5 18 2 -10 2 -26 0 -35z m1449 -1241 c-6 -5 -26 95 -25 121 0 12 7 -9 15 -47 7 -39 12 -72 10 -74z m-4176 36 c17 -35 30 -74 30 -88 -1 -23 -2 -23 -19 10 -20 38 -53 140 -45 140 3 0 18 -28 34 -62z m330 -548 c8 -5 10 -10 4 -10 -7 0 -22 9 -35 21 -19 16 -20 18 -4 10 11 -6 27 -15 35 -21z m274 -5 c-17 -26 -82 -51 -97 -36 -5 5 12 16 40 27 26 9 52 21 58 26 16 14 16 9 -1 -17z m4576 -4 c0 -38 -64 -113 -122 -144 -75 -39 -91 -31 -29 15 27 20 68 62 92 92 47 60 59 67 59 37z m-3340 -131 c6 -11 8 -20 6 -20 -3 0 -10 9 -16 20 -6 11 -8 20 -6 20 3 0 10 -9 16 -20z m2945 -58 l50 -8 -48 -13 c-48 -14 -49 -14 -75 13 l-27 27 25 -6 c14 -3 48 -9 75 -13z m-1946 -109 c-10 -36 -89 -166 -97 -159 -2 2 11 26 27 53 17 27 40 71 51 96 25 57 32 60 19 10z" id="element-2"/>
<path d="M4678 4744 c-40 -12 -2 -44 50 -44 47 0 152 -36 215 -75 32 -19 59 -35 61 -35 2 0 4 11 4 25 0 61 -241 155 -330 129z" id="element-3"/>
<path d="M4120 4240 c-27 -20 -21 -35 13 -35 30 0 49 -52 24 -66 -9 -6 -17 -17 -17 -24 0 -19 4 -19 39 0 27 13 30 13 55 -14 15 -16 45 -37 67 -46 21 -10 39 -23 38 -29 -4 -36 3 -39 25 -13 l23 28 64 -17 c94 -26 316 -26 382 0 26 10 47 25 47 32 0 18 -5 17 -79 -1 -50 -13 -82 -14 -193 -6 -202 16 -265 41 -373 150 -33 34 -66 61 -75 61 -8 0 -26 -9 -40 -20z m240 -171 c0 -11 -38 2 -50 16 -10 11 -6 12 19 2 17 -6 31 -14 31 -18z" id="element-4"/>
<path d="M6820 4048 c-106 -74 -144 -94 -217 -114 -63 -16 -195 -19 -283 -5 -54 9 -200 45 -230 57 -22 10 -61 11 -66 2 -11 -18 139 -71 266 -93 47 -8 135 -15 196 -15 108 0 112 -1 128 -25 9 -14 21 -23 26 -20 14 9 12 42 -2 48 -8 3 -5 6 5 6 10 1 52 15 94 32 69 29 78 31 115 20 27 -8 44 -9 50 -3 14 14 1 32 -22 32 -30 0 -32 16 -3 35 24 16 28 16 53 2 35 -21 46 -10 19 19 -18 20 -20 26 -9 39 7 8 11 16 9 18 -45 25 -43 26 -129 -35z" id="element-5"/>
<path d="M4639 4464 c-43 -18 -69 -59 -69 -109 0 -29 8 -45 34 -71 33 -33 86 -47 86 -24 0 6 -6 10 -14 10 -23 0 -63 38 -69 66 -12 67 38 114 104 97 45 -12 61 -45 54 -105 -6 -51 6 -64 26 -27 10 19 8 83 -3 133 -5 20 -56 44 -93 45 -11 0 -36 -7 -56 -15z" id="element-6"/>
<path d="M4665 4370 c-9 -15 4 -30 26 -30 12 0 19 7 19 20 0 21 -33 29 -45 10z" id="element-7"/>
<path d="M6348 4369 c-40 -15 -72 -73 -72 -128 1 -57 27 -111 54 -111 25 0 25 2 0 42 -31 51 -26 94 14 134 41 41 74 44 113 10 37 -32 39 -93 4 -130 -22 -23 -22 -26 -7 -32 45 -17 85 97 54 155 -29 54 -103 82 -160 60z" id="element-8"/>
<path d="M6374 4265 c-10 -25 4 -45 31 -45 17 0 25 5 25 18 0 36 -45 57 -56 27z" id="element-9"/>
<path d="M4924 3515 c-9 -23 3 -73 26 -106 39 -53 111 -56 212 -9 24 11 31 10 74 -19 92 -60 189 -65 273 -14 47 29 86 89 75 116 -12 32 -33 26 -61 -16 -68 -101 -170 -102 -308 -3 -18 13 -26 12 -80 -15 -64 -31 -116 -37 -134 -15 -6 7 -17 31 -25 52 -14 41 -42 57 -52 29z" id="element-10"/>
</g>
</g>
</svg>
